<svg xmlns="http://www.w3.org/2000/svg" viewBox="0 0 1024 1024" width="1024" height="1024">
  <defs>
    <path id="head" d="m 965.6296,691.91734 c -8.4955,-7.45171 -12.47636,-0.11823 -40.19227,2.06729 19.31503,-25.37841 59.95106,-63.70345 56.23384,-84.41525 C 948.65889,580.9425 894.81599,535.50494 875.32536,452.66971 904.56132,395.17232 940.619,149.59023 879.22348,78.449383 822.70062,60.907806 688.91881,198.83237 643.17318,260.15863 590.07411,242.4074 521.6942,241.83134 512,241.83135 c -9.6942,1e-5 -78.76321,0.23172 -131.17318,18.3275 C 335.08119,198.83259 201.29938,60.908027 144.77652,78.449597 83.380999,149.59045 119.43868,395.17254 148.67464,452.66993 129.18401,535.50516 75.341109,580.94272 42.328829,609.5696 c -3.71722,20.7118 36.91881,59.03684 56.233836,84.41525 -27.715906,-2.18552 -31.696766,-9.519 -40.192266,-2.06729 C 84.846639,752.08528 269.34208,927.06511 512,927.06511 c 242.65792,0 427.15336,-174.98005 453.6296,-235.14777 z"></path>
    <clipPath id="furClip"><path d="m 156.24023,76.925781 c -4.0959,-0.06157 -7.93021,0.42709 -11.46289,1.523438 -61.395512,71.140851 -25.33947,316.723311 3.89649,374.220701 -19.49063,82.83523 -73.333425,128.27156 -106.345705,156.89844 -2.686931,14.97118 17.8002,39.14525 36.658203,60.98047 29.509122,-28.34134 72.983492,-46.96474 105.371092,-53.25586 59.5,-11.25 108.34909,20.83207 183.93547,36.07835 41.20371,2.83393 130.7666,-28.58812 141.27547,-32.06273 l 0.0117,-0.82226 H 512 h 2.41992 l 0.0117,0.82226 c 10.50889,3.47461 96.25123,34.54311 143.10911,31.38075 73.93995,-14.37801 122.60185,-46.64637 182.10185,-35.39637 32.3876,6.29112 75.86196,24.9145 105.37109,53.25586 18.85801,-21.83523 39.34514,-46.00929 36.65821,-60.98047 C 948.65959,580.94148 894.8168,535.50515 875.32617,452.66992 904.56213,395.17253 940.61818,149.59006 879.22266,78.449219 822.6998,60.907639 688.91946,198.83194 643.17383,260.1582 590.07476,242.40697 521.6942,241.83007 512,241.83008 c -9.6942,1e-5 -78.76386,0.23234 -131.17383,18.32812 C 337.93964,202.66483 217.67887,77.849401 156.24023,76.925781 Z m 23.39649,88.365239 c 25.35512,-0.64162 111.43694,79.79178 128.73437,129.98828 -91.30553,41.34589 -94.91747,76.87786 -120.93554,90.96093 -24.46299,-36.52221 -28.37862,-208.7982 -8.95899,-220.85742 0.37135,-0.0515 0.7577,-0.0816 1.16016,-0.0918 z m 664.72656,0 c 0.40246,0.0102 0.78881,0.0403 1.16016,0.0918 19.41963,12.05922 15.504,184.33521 -8.95899,220.85742 C 810.54638,372.15715 806.93444,336.62519 715.62891,295.2793 732.92634,245.0828 819.00816,164.6494 844.36328,165.29102 Z M 961.41602,689.25 c 1.11932,1.42872 2.2608,2.90361 3.41601,4.41211 0.27988,-0.59191 0.54542,-1.17465 0.79688,-1.74609 -1.49242,-1.30906 -2.84602,-2.16151 -4.21289,-2.66602 z m -898.833989,0.002 c -1.366205,0.5047 -2.719238,1.3576 -4.210937,2.66602 0.251286,0.57105 0.517205,1.15265 0.796875,1.74414 1.154721,-1.50787 2.295196,-2.982 3.414062,-4.41016 z"></path></clipPath>
    <clipPath id="bgClip"><rect x="0" y="0" width="1024" height="1024"></rect></clipPath>
    <mask id="celShade" maskUnits="userSpaceOnUse" x="0" y="0" width="1024" height="1024">
      <rect width="1024" height="1024" fill="#fff"></rect>
      <use href="#head" transform="translate(-64,-72)" fill="#000"></use>
    </mask>
  </defs>

  
  <rect width="1024" height="1024" fill="#7C9153"></rect>

  
  <g clip-path="url(#bgClip)">
    <use href="#head" transform="translate(34,22)" fill="#2E3B20" opacity="0.28"></use>
  </g>

  
  <use href="#head" fill="#FBECCB"></use>

  
  <use href="#head" fill="#EDD3A0" mask="url(#celShade)"></use>

  <path fill="#ED9351" d="m 156.24023,76.925781 c -4.0959,-0.06157 -7.93021,0.42709 -11.46289,1.523438 -61.395512,71.140851 -25.33947,316.723311 3.89649,374.220701 -19.49063,82.83523 -73.333425,128.27156 -106.345705,156.89844 -2.686931,14.97118 17.8002,39.14525 36.658203,60.98047 29.509122,-28.34134 72.983492,-46.96474 105.371092,-53.25586 59.5,-11.25 108.34909,20.83207 183.93547,36.07835 41.20371,2.83393 130.7666,-28.58812 141.27547,-32.06273 l 0.0117,-0.82226 H 512 h 2.41992 l 0.0117,0.82226 c 10.50889,3.47461 96.25123,34.54311 143.10911,31.38075 73.93995,-14.37801 122.60185,-46.64637 182.10185,-35.39637 32.3876,6.29112 75.86196,24.9145 105.37109,53.25586 18.85801,-21.83523 39.34514,-46.00929 36.65821,-60.98047 C 948.65959,580.94148 894.8168,535.50515 875.32617,452.66992 904.56213,395.17253 940.61818,149.59006 879.22266,78.449219 822.6998,60.907639 688.91946,198.83194 643.17383,260.1582 590.07476,242.40697 521.6942,241.83007 512,241.83008 c -9.6942,1e-5 -78.76386,0.23234 -131.17383,18.32812 C 337.93964,202.66483 217.67887,77.849401 156.24023,76.925781 Z m 23.39649,88.365239 c 25.35512,-0.64162 111.43694,79.79178 128.73437,129.98828 -91.30553,41.34589 -94.91747,76.87786 -120.93554,90.96093 -24.46299,-36.52221 -28.37862,-208.7982 -8.95899,-220.85742 0.37135,-0.0515 0.7577,-0.0816 1.16016,-0.0918 z m 664.72656,0 c 0.40246,0.0102 0.78881,0.0403 1.16016,0.0918 19.41963,12.05922 15.504,184.33521 -8.95899,220.85742 C 810.54638,372.15715 806.93444,336.62519 715.62891,295.2793 732.92634,245.0828 819.00816,164.6494 844.36328,165.29102 Z M 961.41602,689.25 c 1.11932,1.42872 2.2608,2.90361 3.41601,4.41211 0.27988,-0.59191 0.54542,-1.17465 0.79688,-1.74609 -1.49242,-1.30906 -2.84602,-2.16151 -4.21289,-2.66602 z m -898.833989,0.002 c -1.366205,0.5047 -2.719238,1.3576 -4.210937,2.66602 0.251286,0.57105 0.517205,1.15265 0.796875,1.74414 1.154721,-1.50787 2.295196,-2.982 3.414062,-4.41016 z"></path>

  
  <g clip-path="url(#furClip)"><use href="#head" fill="#D67734" mask="url(#celShade)"></use></g>

  
  <use href="#head" fill="none" stroke="#4A2718" stroke-width="28" stroke-linejoin="round"></use>

  
  <path fill="#4A2718" d="m 306.44947,296.28368 c -8.61372,-8.44147 -39.07935,-17.71571 -55.10089,-8.75743 -16.8829,9.64738 -13.60968,40.48452 0.68911,45.13592 6.54294,2.61499 54.41178,-36.37849 54.41178,-36.37849 z m 411.10106,0 c 8.61372,-8.44147 39.07935,-17.71571 55.10089,-8.75743 16.8829,9.64738 13.60968,40.48452 -0.68911,45.13592 -6.54294,2.61499 -54.41178,-36.37849 -54.41178,-36.37849 z"></path>
  
  <path fill="#4A2718" d="m 282.25,468 c -11.5,-19.25 35.75,-45.5 63,-46.75 27.25,-1.25 65.38218,7.42109 56.5,26.75 -7.60389,16.54716 -27.5,-3.25 -57.5,-0.75 -30,2.5 -52.25,26.5 -62,20.75 z m 459.5,0 c 11.5,-19.25 -35.75,-45.5 -63,-46.75 -27.25,-1.25 -65.38218,7.42109 -56.5,26.75 7.60389,16.54716 27.5,-3.25 57.5,-0.75 30,2.5 52.25,26.5 62,20.75 z"></path>
  
  <path fill="#4A2718" stroke="#4A2718" stroke-width="22" stroke-linecap="round" stroke-linejoin="round" d="M 282.25,548.75 H 403.5 m 338.25,0 H 620.5"></path>
  
  <path fill="#4A2718" d="m 320.19336,549.5 c -1.95261,3.93896 -2.96661,8.25393 -2.9668,12.625 0,16.08541 13.43675,29.12516 30.01172,29.125 16.57497,1.6e-4 30.01172,-13.03959 30.01172,-29.125 -1.9e-4,-4.37107 -1.01419,-8.68604 -2.9668,-12.625 z m 383.61328,0 c 1.95261,3.93896 2.96661,8.25393 2.9668,12.625 0,16.08541 -13.43675,29.12516 -30.01172,29.125 -16.57497,1.6e-4 -30.01172,-13.03959 -30.01172,-29.125 1.9e-4,-4.37107 1.01419,-8.68604 2.9668,-12.625 z"></path>
  
  <path fill="#4A2718" d="m 514.40241,725.04181 c 25.2561,-0.25 71.1249,-34.57717 70.96068,-70.09672 -0.17012,-36.79634 -55.67338,-38.67692 -72.63225,-38.84798 -17.89601,-0.18051 -71.95332,3.53553 -71.95332,36.06245 0,32.52691 46.51956,73.29646 73.62489,72.88225 z"></path>
  
  <path fill="none" stroke="#4A2718" stroke-width="23" stroke-linecap="round" stroke-linejoin="round" d="m 513.97453,759.0955 v -50.75"></path>
  
  <path fill="none" stroke="#4A2718" stroke-width="22" stroke-linecap="round" d="m 365.5,732 c 0,0 40.01325,44.86077 89,46 43,1 47.98727,-9.12734 60.47453,-15.20543 11.75637,5.12903 43.11722,17.18786 70.98727,13.78183 C 623.81861,771.94988 655.14007,756.55262 674,703.5"></path>
  <path fill="none" stroke="#4A2718" stroke-width="22" stroke-linecap="round" stroke-linejoin="round" d="m 647.57658,701.66311 c 15.83614,-1.4618 33.62136,-2.67997 47.9957,14.13071"></path>
</svg>